<svg xmlns="http://www.w3.org/2000/svg" width="15" height="15" viewBox="0 0 15 15"><path d="M6.549 9.27q0-.91.33-1.538.348-.612 1.24-1.307.596-.447.944-.777a2.6 2.6 0 0 0 .512-.645q.165-.331.166-.778 0-.678-.48-1.025-.48-.364-1.34-.364-.777 0-1.488.231a10 10 0 0 0-1.406.58l-.794-1.655a9.6 9.6 0 0 1 1.753-.71A7.5 7.5 0 0 1 8.103 1q1.77 0 2.73.86.991.86.992 2.233 0 .761-.248 1.306a3.3 3.3 0 0 1-.695.993 12 12 0 0 1-1.125.976q-.546.43-.843.727a1.6 1.6 0 0 0-.38.596 2.7 2.7 0 0 0-.083.711V10H6.549ZM6 12.5q0-.823.42-1.152A1.73 1.73 0 0 1 7.5 11q.603 0 1.043.348Q9 11.678 9 12.5q0 .805-.457 1.152Q8.123 14 7.5 14q-.622 0-1.08-.348Q6 13.305 6 12.5"/></svg>