<svg xmlns="http://www.w3.org/2000/svg" width="1024" height="1024" viewBox="0 0 128 128"><path d="M0 0h128v128H0z" style="fill:#faebd7"/><path d="M39.152 56.707q-.317.317-.634.422-.29.132-.501-.079-.238-.238-.185-.554.079-.344.29-.766.555-.977.687-1.953.131-1.03-.29-2.139-.898-2.217-1.717-4.25-.845-2.059-1.716-4.039-.87-1.98-1.795-4.013-.897-2.059-1.953-4.276-.528-1.109-.871-1.663-.344-.555-.476-.845.29-.502.528-.95.238-.45.502-1.03.185-.554.158-1.109t-.053-.844q.027-.132.106-.212.053-.105.264-.052.238.079.449.184.211.106.449.238 2.455 1.294 4.989 2.613 2.534 1.268 5.016 2.535 2.455 1.24 4.725 2.402 2.27 1.109 4.171 2.06.95.474 1.716.553.792.053 1.452-.132.66-.237 1.32-.633.422-.264.739-.317t.554.185q.159.158.053.422-.08.238-.343.502-.475.475-1.24 1.188-.74.686-1.532 1.425-.818.713-1.425 1.32-.528.528-1.162 1.215l-1.24 1.346q-.608.66-1.057 1.109-.264.264-.554.396-.29.079-.475-.106-.211-.211-.132-.554.053-.37.29-.713.792-1.109.898-1.848.079-.766-.66-1.293-.528-.37-1.294-.819-.792-.475-1.636-.95-.845-.528-1.584-.898-.264-.158-.45-.132-.21 0-.5.29l-4.752 4.752q-.185.185-.159.423 0 .211.185.501.238.45.528 1.056.29.555.607 1.188.317.581.58 1.109.291.502.529.845.58.844 1.373.897.792 0 1.98-.712.897-.528 1.267-.159.158.159.079.449-.08.237-.396.554-.607.607-1.32 1.215-.687.633-1.478 1.425-.792.792-1.479 1.637-.66.818-1.425 1.584m-1.373-13.939 3.67-3.67q.369-.369.21-.527-.079-.08-.158-.106-.053-.052-.185-.132l-7.946-4.25q-.475-.264-.554-.185-.053.053.158.528l3.907 8.342q.08.185.159.264.132.132.317.053.21-.106.422-.317m35.731-1.452q-.237-.237-.316-.528-.106-.264.053-.422.396-.396 1.188.132 1.214.792 2.006.845t1.663-.819L89.72 28.91q1.004-1.003 1.136-1.821.158-.792-.581-1.954-.29-.449-.317-.74 0-.316.158-.474.185-.185.423-.106.29.08.58.37.634.633 1.136 1.188.554.554 1.03 1.082.474.528 1.002 1.056.581.58 1.136 1.03l1.161.95q.607.501 1.32 1.214 3.142 3.142 3.696 6.336t-1.769 5.517q-1.637 1.637-3.722 2.35-2.033.712-4.277.158-2.217-.528-4.329-2.64-.66-.66-.818-1.188-.132-.554.105-.792.159-.158.423-.105.316.052.448.184.238.238.396.502.212.264.66.713 1.241 1.24 3.142.607 1.927-.607 4.039-2.72 2.323-2.322 2.428-4.329.159-2.006-1.425-3.59-.74-.739-1.478-.844-.687-.106-1.347.554L81.668 43.77q-.871.872-.898 1.743.027.87.845 2.164.29.396.317.687.053.264-.159.475-.184.185-.422.106-.211-.053-.501-.344-.608-.607-1.188-1.293-.608-.66-1.188-1.294-.555-.607-1.083-1.135-.58-.58-1.24-1.188-.634-.58-1.32-1.161-.687-.581-1.32-1.215M30.77 98.233q-1.874-1.874-2.904-4.171t-1.188-4.725q-.105-2.429.74-4.752.87-2.297 2.771-4.197 1.875-1.875 4.25-2.825 2.403-.924 4.99-.871 2.613.026 5.148 1.082 2.587 1.056 4.778 3.247.501.502 1.135 1.346.66.819 1.32 1.743t1.161 1.742q.528.845.74 1.373.105.264.079.501 0 .212-.185.45-.74 1.002-1.452 1.873-.713.872-1.294 1.452-.21.212-.501.238-.264.053-.449-.132-.29-.29-.237-.607.079-.343.21-.687.265-.686.45-1.399.21-.739.237-1.557 0-.528-.185-1.294-.132-.765-.633-1.69-.502-.923-1.531-1.953-1.452-1.452-3.221-2.006-1.742-.58-3.59-.317-1.848.264-3.617 1.188-1.742.898-3.194 2.35-1.822 1.821-2.878 3.722-1.03 1.874-1.32 3.696-.263 1.795.238 3.405.502 1.61 1.822 2.93.95.95 1.742 1.215.845.264 1.293.29.528.053 1.188-.238.66-.29 1.32-.897l.608-.607q.395-.343.765-.713.396-.343.634-.58.29-.291.396-.608.158-.317.026-.713-.053-.422-.29-.924-.212-.528-.555-.976-.29-.45-.501-.713-.159-.211-.238-.555-.053-.37.158-.58.212-.212.502-.132.317.105.475.264.607.607 1.215 1.267l1.24 1.346q.634.686 1.241 1.294.74.739 1.505 1.399.792.686 1.557 1.452.159.158.211.422.106.264-.132.502-.21.21-.527.158-.317-.053-.502-.185-.898-.528-1.452-.501-.528.052-1.135.501-.686.475-1.188.871-.475.423-.977.924l-.818.819q-.132.132-.159.316 0 .212-.026.45-.026.237-.08.448-.026.238-.158.37-.158.158-.448.237-.238.08-.581-.158-.211-.159-1.003-.423t-1.954-.739q-1.108-.475-2.428-1.32-1.294-.818-2.614-2.138m66.843-.383q-1.795 1.795-4.04 2.825-2.27 1.003-4.672 1.135-2.402.08-4.725-.766-2.323-.897-4.277-2.85-1.795-1.796-2.85-4.013-1.057-2.27-1.189-4.726-.105-2.481.845-4.962.977-2.508 3.247-4.779 1.795-1.795 4.039-2.771 2.244-1.03 4.673-1.136 2.402-.132 4.725.766 2.323.845 4.276 2.798 1.77 1.769 2.825 4.04 1.082 2.243 1.188 4.725.132 2.455-.845 4.963-.95 2.481-3.22 4.751m-.713-1.61q1.663-1.663 1.927-3.617.29-1.98-.66-4.039-.95-2.112-2.93-4.091-1.69-1.69-3.617-2.93t-3.88-1.77q-1.98-.554-3.802-.21-1.795.316-3.273 1.795-1.663 1.663-1.954 3.643-.264 1.953.687 4.012.95 2.06 2.93 4.04 1.69 1.689 3.616 2.93 1.928 1.24 3.881 1.82 1.98.555 3.775.238 1.822-.343 3.3-1.821" style="fill:#000"/><path d="M64 18v10M18 64h10m36 46v-10m46-36h-10" style="stroke:#000;stroke-width:1px;stroke-linecap:butt"/><path d="M69.464 65.464 64 64l5.856-21.856ZM64 64l-5.464-1.464-.392 23.32Z" style="fill:#dc143c"/><path d="M58.536 62.536 64 64l5.856-21.856ZM64 64l5.464 1.464-11.32 20.392z" style="fill:#1e90ff"/></svg>