<svg xmlns="http://www.w3.org/2000/svg" width="1024" height="1024" viewBox="0 0 22 22"><rect width="22" height="22" fill="#000920"/><path d="M3.13 18.87V5.553L7.743 3.13l6.581 2.494L18.87 3.13v13.317l-4.613 2.423-6.514-2.423Z" style="fill:#b0c4de;stroke:#003680;stroke-width:1;stroke-linejoin:round"/><path d="M10.642 9.493q0 .178-.028.349a2 2 0 0 0 .772 0 2.65 2.65 0 0 1 1.54-2.749 2.06 2.06 0 0 0-3.853 0 2.61 2.61 0 0 1 1.565 2.4" style="fill:#c97682"/><path d="M11.929 9.493q0 .08.008.159a2 2 0 0 0 .122.566 4 4 0 0 0 .13.277 2.614 2.614 0 0 1 3.593 0 2.06 2.06 0 1 0-3.853-1.006" style="fill:#75c275"/><path d="M8.012 9.786a2.61 2.61 0 0 1 1.798.713 2 2 0 0 0 .214-.554 2 2 0 0 0 .047-.452A2.06 2.06 0 1 0 6.218 10.5a2.61 2.61 0 0 1 1.794-.713" style="fill:#eee391"/><path d="M15.627 11.168a2.043 2.043 0 0 0-3.433.238 2 2 0 0 0-.158.356 2.61 2.61 0 0 1 1.576 2.673 2.06 2.06 0 0 0 2.015-3.267" style="fill:#ca94c2"/><path d="M9.968 11.766a2 2 0 0 0-.316-.602 2.043 2.043 0 0 0-3.434.238 2.06 2.06 0 0 0 2.17 3.03l-.011-.254c0-1.081.657-2.012 1.591-2.416" style="fill:#767ebd"/><path d="M11.929 12.34a4 4 0 0 0-.278-.118 4 4 0 0 0-.277-.072 2.06 2.06 0 0 0-2.431 2.028v.067q.004.155.031.297a2.063 2.063 0 0 0 4.08-.3l.003-.064a2.06 2.06 0 0 0-1.128-1.838" style="fill:#d9a07d"/></svg>
