<svg xmlns="http://www.w3.org/2000/svg" width="22" height="22" viewBox="0 0 5.821 5.821"><path d="M.923 4.898V1.535L2.088.923l1.662.63 1.148-.63v3.363l-1.165.612-1.645-.612Z" style="fill:#b0c4de;fill-opacity:1;stroke:#003680;stroke-width:.259141;stroke-linecap:butt;stroke-linejoin:round;stroke-dasharray:none;stroke-opacity:1"/><path d="M2.82 2.53q0 .045-.007.088a.5.5 0 0 0 .195 0 .67.67 0 0 1 .389-.694.52.52 0 0 0-.973 0 .66.66 0 0 1 .395.606" class="st0" style="fill:#c97682;stroke:none"/><path d="M3.145 2.53q0 .02.002.04a.5.5 0 0 0 .031.143 1 1 0 0 0 .033.07.66.66 0 0 1 .907 0 .52.52 0 1 0-.973-.254" class="st1" style="fill:#75c275;stroke:none"/><path d="M2.156 2.604a.66.66 0 0 1 .454.18.5.5 0 0 0 .054-.14.5.5 0 0 0 .012-.114.52.52 0 1 0-.973.254.66.66 0 0 1 .453-.18" class="st2" style="fill:#eee391;stroke:none"/><path d="M4.079 2.953a.516.516 0 0 0-.867.06.5.5 0 0 0-.04.09.66.66 0 0 1 .398.675.52.52 0 0 0 .509-.825" class="st3" style="fill:#ca94c2;stroke:none"/><path d="M2.65 3.104a.5.5 0 0 0-.08-.152.516.516 0 0 0-.867.06.52.52 0 0 0 .548.765l-.003-.064c0-.273.166-.508.402-.61" class="st4" style="fill:#767ebd;stroke:none"/><path d="M3.145 3.249a1 1 0 0 0-.07-.03 1 1 0 0 0-.07-.018.52.52 0 0 0-.614.512v.017q.001.039.008.075a.521.521 0 0 0 1.03-.076l.001-.016a.52.52 0 0 0-.285-.464" class="st5" style="fill:#d9a07d;stroke:none"/></svg>