<svg xmlns="http://www.w3.org/2000/svg" width="16" height="16" viewBox="0 0 4.233 4.233"><path d="M.13 4.104V.74L1.294.13l1.662.63L4.104.13v3.362l-1.165.612-1.645-.612Z" style="fill:none;stroke:#000;stroke-width:.259141;stroke-linejoin:round"/><path d="M2.025 1.737q0 .046-.006.088a.5.5 0 0 0 .195 0 .67.67 0 0 1 .389-.694.52.52 0 0 0-.973 0 .66.66 0 0 1 .395.606" class="st0" style="fill:#000"/><path d="M2.35 1.737q0 .02.003.04a.5.5 0 0 0 .031.143 1 1 0 0 0 .033.07.66.66 0 0 1 .907 0 .52.52 0 1 0-.973-.254" class="st1" style="fill:#000"/><path d="M1.362 1.81a.66.66 0 0 1 .454.18.5.5 0 0 0 .054-.14.5.5 0 0 0 .012-.113.52.52 0 1 0-.973.254.66.66 0 0 1 .453-.18" class="st2" style="fill:#000"/><path d="M3.285 2.16a.516.516 0 0 0-.867.06.5.5 0 0 0-.04.09.66.66 0 0 1 .398.675.52.52 0 0 0 .509-.825" class="st3" style="fill:#000"/><path d="M1.856 2.31a.5.5 0 0 0-.08-.15.516.516 0 0 0-.867.06.52.52 0 0 0 .548.765l-.003-.065c0-.273.166-.508.402-.61" class="st4" style="fill:#000"/><path d="M2.351 2.456a1 1 0 0 0-.07-.03 1 1 0 0 0-.07-.018.52.52 0 0 0-.614.512v.017q.001.039.008.075a.521.521 0 0 0 1.03-.076l.001-.016a.52.52 0 0 0-.285-.464" class="st5" style="fill:#000"/></svg>