<?xml version="1.0" encoding="UTF-8" standalone="no"?>
<!-- Generator: Adobe Illustrator 26.4.1, SVG Export Plug-In . SVG Version: 6.00 Build 0)  -->

<svg
   version="1.1"
   id="Layer_1"
   x="0px"
   y="0px"
   viewBox="0 0 2034 2112"
   style="enable-background:new 0 0 2034 2112;"
   xml:space="preserve"
   sodipodi:docname="globes-icon.svg"
   inkscape:version="1.2.2 (b0a8486541, 2022-12-01)"
   inkscape:export-filename="../public/favicon.png"
   inkscape:export-xdpi="5.818182"
   inkscape:export-ydpi="5.818182"
   xmlns:inkscape="http://www.inkscape.org/namespaces/inkscape"
   xmlns:sodipodi="http://sodipodi.sourceforge.net/DTD/sodipodi-0.dtd"
   xmlns="http://www.w3.org/2000/svg"
   xmlns:svg="http://www.w3.org/2000/svg"><defs
   id="defs21" /><sodipodi:namedview
   id="namedview19"
   pagecolor="#ffffff"
   bordercolor="#666666"
   borderopacity="1.0"
   inkscape:showpageshadow="2"
   inkscape:pageopacity="0.0"
   inkscape:pagecheckerboard="0"
   inkscape:deskcolor="#d1d1d1"
   showgrid="false"
   inkscape:zoom="0.20596591"
   inkscape:cx="883.64138"
   inkscape:cy="1024.4414"
   inkscape:window-width="1452"
   inkscape:window-height="749"
   inkscape:window-x="2056"
   inkscape:window-y="275"
   inkscape:window-maximized="0"
   inkscape:current-layer="Layer_1" />
<style
   type="text/css"
   id="style2">
	.st0{fill:#C97682;}
	.st1{fill:#75C275;}
	.st2{fill:#EEE391;}
	.st3{fill:#CA94C2;}
	.st4{fill:#767EBD;}
	.st5{fill:#D9A07D;}
</style>

<path
   id="path4"
   style="enable-background:new 0 0 2034 2112;display:inline"
   class="st0"
   d="M 1016.3008 7.2109375 C 1009.8513 7.2109375 1003.4474 7.40263 997.07031 7.6953125 C 995.07187 7.787232 993.08668 7.9285203 991.0957 8.0488281 C 986.62601 8.3183574 982.17429 8.6537528 977.74414 9.0644531 C 975.57988 9.2654947 973.4162 9.4687267 971.26172 9.703125 C 966.62693 10.206407 962.02097 10.803511 957.43359 11.458984 C 955.74661 11.70047 954.0456 11.898296 952.36523 12.160156 C 946.40216 13.087778 940.48499 14.149973 934.60938 15.330078 C 932.50232 15.753959 930.42152 16.247234 928.32617 16.703125 C 924.42213 17.551215 920.53184 18.436788 916.66992 19.394531 C 914.11396 20.029349 911.57015 20.694673 909.0332 21.376953 C 905.62941 22.291062 902.24926 23.261368 898.88086 24.259766 C 896.29953 25.025916 893.71036 25.772813 891.15039 26.587891 C 887.44221 27.767016 883.77711 29.040023 880.11523 30.320312 C 875.87163 31.805818 871.66351 33.363329 867.48438 34.982422 C 864.6184 36.091503 861.74865 37.192441 858.91406 38.363281 C 855.87617 39.619467 852.87199 40.939438 849.87109 42.265625 C 847.52423 43.301708 845.18693 44.355281 842.86328 45.433594 C 839.72849 46.889777 836.60326 48.364439 833.51172 49.896484 C 831.56637 50.859622 829.64853 51.868555 827.7207 52.861328 C 816.31978 58.737821 805.22281 65.114818 794.4707 71.992188 C 793.15504 72.833099 791.83277 73.664157 790.52734 74.519531 C 787.10246 76.76531 783.71432 79.062307 780.36133 81.40625 C 779.21692 82.205711 778.0851 83.021297 776.94922 83.832031 C 761.26763 95.032391 746.39271 107.28671 732.45312 120.52148 C 731.89652 121.04963 731.34077 121.57816 730.78711 122.10938 C 686.74681 164.38994 652.06763 216.33829 630.2207 274.55078 C 654.17394 285.15339 677.16425 297.53104 699.08398 311.45117 C 744.11771 179.48088 869.05632 84.5625 1016.3008 84.5625 C 1042.7298 84.5625 1068.5126 87.624303 1093.3301 93.425781 C 1093.4912 95.359607 1093.6523 97.13258 1093.6523 99.066406 L 1093.6523 166.58984 C 1093.6523 180.28778 1088.1749 193.34065 1078.5059 203.00977 L 1057.0723 224.44336 C 1047.4032 234.11249 1041.9238 247.16535 1041.9238 260.86328 L 1041.9238 329.67578 C 1041.9238 351.10902 1024.6794 368.35156 1003.2461 368.35156 C 981.81292 368.35156 964.57031 385.59606 964.57031 407.0293 L 964.57031 471.49023 C 964.57031 500.01416 941.52588 523.05859 913.00195 523.05859 L 889.38477 523.05859 C 924.10601 593.20623 943.69922 672.11906 943.69922 755.53906 C 943.69922 778.9403 942.1938 802.35087 939.17383 825.00586 C 941.38179 825.4235 943.60005 825.8091 945.82031 826.19141 C 949.67304 826.83609 953.51612 827.5073 957.4043 828.05664 C 958.36777 828.19438 959.34298 828.29471 960.30859 828.42578 C 965.89173 829.17778 971.49625 829.86996 977.15234 830.41016 C 977.20218 830.41492 977.25289 830.41713 977.30273 830.42188 C 983.65395 831.02622 990.05066 831.4925 996.49414 831.80859 C 998.58089 831.90724 1000.6943 831.90121 1002.7891 831.96875 C 1007.2807 832.12009 1011.7645 832.30078 1016.3008 832.30078 C 1021.5595 832.30078 1026.7641 832.11721 1031.9629 831.91406 C 1033.3255 831.86313 1034.7033 831.87466 1036.0625 831.81055 C 1048.4468 831.20285 1060.6494 830.00757 1072.6934 828.375 C 1073.4912 828.26591 1074.2974 828.18396 1075.0938 828.07031 C 1079.043 827.5136 1082.9447 826.83207 1086.8574 826.17773 C 1089.0513 825.79954 1091.244 825.41855 1093.4258 825.00586 C 1090.4157 802.35091 1088.9004 778.95029 1088.9004 755.53906 C 1088.9004 726.95755 1091.2586 698.92311 1095.668 671.56445 C 1079.2047 662.96132 1067.8691 645.93138 1067.8691 626.03516 L 1067.8691 595.90039 C 1067.8691 582.20245 1073.3484 569.14765 1083.0176 559.47852 L 1156.0195 486.47656 C 1159.7446 482.75144 1164.0812 479.8666 1168.6543 477.45898 C 1224.2705 388.55581 1305.6689 317.35916 1402.3809 274.55078 C 1380.5129 216.29222 1345.7948 164.30651 1301.7051 122.00781 C 1301.2227 121.54532 1300.7385 121.08516 1300.2539 120.625 C 1286.2347 107.30478 1271.2685 94.975794 1255.4863 83.714844 C 1254.4353 82.965437 1253.3884 82.210464 1252.3301 81.470703 C 1248.924 79.088194 1245.4803 76.755779 1242 74.474609 C 1240.7614 73.663418 1239.5075 72.874349 1238.2598 72.076172 C 1227.4403 65.149756 1216.2717 58.73081 1204.7949 52.818359 C 1202.9033 51.844801 1201.0217 50.855189 1199.1133 49.910156 C 1196.0011 48.367558 1192.8552 46.881725 1189.6992 45.416016 C 1187.4013 44.349936 1185.0901 43.307989 1182.7695 42.283203 C 1179.7481 40.947501 1176.723 39.618246 1173.6641 38.353516 C 1170.8542 37.193063 1168.0087 36.103677 1165.168 35.003906 C 1160.9712 33.377273 1156.7462 31.812211 1152.4844 30.320312 C 1148.8225 29.040023 1145.1574 27.767016 1141.4492 26.587891 C 1138.8893 25.772813 1136.3 25.025916 1133.7188 24.259766 C 1130.3503 23.261368 1126.9702 22.291062 1123.5664 21.376953 C 1121.0287 20.694467 1118.4844 20.027573 1115.9277 19.392578 C 1112.0752 18.437196 1108.1952 17.555249 1104.3008 16.708984 C 1102.1938 16.250401 1100.1013 15.754338 1097.9824 15.328125 C 1092.1099 14.148791 1086.1942 13.087277 1080.2344 12.160156 C 1078.554 11.898296 1076.853 11.70047 1075.166 11.458984 C 1070.5779 10.803409 1065.9715 10.204508 1061.3359 9.7011719 C 1059.1838 9.4670455 1057.0232 9.2652965 1054.8613 9.0644531 C 1050.428 8.653393 1045.973 8.318512 1041.5 8.0488281 C 1039.5106 7.9286364 1037.5262 7.7871596 1035.5293 7.6953125 C 1029.1523 7.4026356 1022.7502 7.2109375 1016.3008 7.2109375 z M 1145.2227 213.48438 C 1159.4039 213.48438 1171.0059 225.08815 1171.0059 239.26953 L 1171.0059 290.83789 C 1171.0059 305.01928 1159.4039 316.62305 1145.2227 316.62305 C 1131.0413 316.62305 1119.4375 305.01928 1119.4375 290.83789 L 1119.4375 239.26953 C 1119.4375 225.08815 1131.0413 213.48438 1145.2227 213.48438 z M 1042.084 419.75977 C 1056.2654 419.75977 1067.8691 431.36354 1067.8691 445.54492 L 1067.8691 497.11328 C 1067.8691 511.29467 1056.2654 522.89844 1042.084 522.89844 C 1027.9025 522.89844 1016.3008 511.29467 1016.3008 497.11328 L 1016.3008 445.54492 C 1016.3008 431.36354 1027.9025 419.75977 1042.084 419.75977 z " /><path
   id="path6"
   style="enable-background:new 0 0 2034 2112;display:inline"
   class="st1"
   d="M 1614.8809 342.98047 C 1608.1681 342.98053 1601.4995 343.16934 1594.8652 343.48633 C 1589.0994 343.77283 1583.3814 344.21243 1577.6895 344.73047 C 1576.9883 344.79315 1576.2783 344.82444 1575.5781 344.89062 C 1570.2125 345.40556 1564.8976 346.06834 1559.5977 346.77344 C 1558.3293 346.94338 1557.0498 347.07637 1555.7852 347.25781 C 1552.1539 347.77221 1548.5652 348.40101 1544.9648 348.99805 C 1541.6745 349.55993 1538.3824 350.11851 1535.1191 350.75781 C 1526.6391 352.48923 1518.2127 354.32813 1509.9277 356.49023 C 1505.0884 357.7594 1500.2955 359.14128 1495.5273 360.58008 C 1491.1557 361.92756 1486.8177 363.35841 1482.5293 364.91016 C 1477.8307 366.41342 1473.1809 368.03677 1468.5703 369.76758 C 1468.3889 369.83641 1468.2106 369.91138 1468.0293 369.98047 C 1454.2751 375.17335 1440.8801 381.34006 1427.6992 388.34961 C 1319.3217 443.63051 1238.3671 545.78059 1211.7559 667.86914 C 1211.7278 667.99875 1211.6939 668.1262 1211.666 668.25586 C 1210.9024 671.77565 1210.2273 675.32668 1209.5547 678.87891 C 1209.0759 681.42645 1208.6173 683.98108 1208.1855 686.54492 C 1207.6793 689.52824 1207.1719 692.51118 1206.7305 695.51562 C 1205.9446 700.90754 1205.2393 706.3257 1204.6641 711.7832 C 1204.4594 713.70821 1204.3204 715.65129 1204.1426 717.58398 C 1203.7399 721.99849 1203.3934 726.42918 1203.1309 730.88281 C 1203.0107 732.90259 1202.8955 734.92382 1202.8047 736.95117 C 1202.5396 742.92901 1202.3577 748.92736 1202.3496 754.96875 C 1202.3493 755.1596 1202.3398 755.34815 1202.3398 755.53906 C 1202.3398 755.80885 1202.3569 756.08522 1202.3574 756.35547 C 1202.3684 761.91351 1202.5467 767.4312 1202.7754 772.93555 C 1203.0138 777.80111 1203.3339 782.64118 1203.8496 787.30078 C 1204.1319 792.30752 1204.5335 797.29061 1205.041 802.24414 C 1205.0413 802.24736 1205.0407 802.25069 1205.041 802.25391 C 1205.6441 807.6023 1206.2648 812.94605 1207.0703 818.23047 C 1207.0953 818.39895 1207.1291 818.56402 1207.1543 818.73242 C 1210.1459 838.19566 1214.541 857.19052 1220.1523 875.65625 C 1222.7876 884.11669 1225.6458 892.48207 1228.8105 900.74023 C 1231.6925 908.63151 1234.8867 916.30324 1238.2578 923.87891 C 1239.3747 926.37403 1240.4701 928.88104 1241.6348 931.34961 C 1242.911 934.05701 1244.2441 936.73898 1245.584 939.41797 C 1246.8172 941.89012 1248.0783 944.34547 1249.3594 946.78906 C 1250.9995 949.90513 1252.6494 953.01781 1254.377 956.10742 C 1254.5552 956.42714 1254.7448 956.7394 1254.9238 957.05859 C 1314.6656 900.92102 1387.5213 858.55958 1468.3203 835.04102 C 1463.1133 826.98436 1460.0176 817.42588 1460.0176 807.09961 L 1460.0176 738.28711 C 1460.0176 724.58917 1465.4969 711.53632 1475.166 701.86719 L 1509.4922 667.54102 C 1519.1613 657.87189 1532.2141 652.39258 1545.9121 652.39258 L 1645.0195 652.39258 C 1658.7174 652.39258 1671.7723 646.91327 1681.4414 637.24414 C 1713.9942 604.85255 1690.9479 549.25586 1645.0195 549.25586 L 1636.1562 549.25586 C 1622.4584 549.25586 1609.4054 554.73321 1599.7363 564.40234 L 1573.9531 590.1875 C 1567.1847 596.95588 1557.8372 600.82422 1548.168 600.82422 C 1528.024 600.82422 1511.748 584.54636 1511.748 564.40234 L 1511.748 446.11719 C 1511.748 442.73299 1512.0702 439.35 1512.7148 436.12695 C 1544.9453 425.97437 1579.2701 420.33398 1614.8848 420.33398 C 1753.6368 420.33398 1872.7283 504.77656 1923.6523 624.99609 L 1923.4922 625.1582 C 1914.9512 641.11228 1898.352 652.55273 1878.3691 652.55273 L 1805.8496 652.55273 C 1785.7056 652.55273 1769.4297 668.83059 1769.4297 688.97461 C 1769.4297 698.64374 1773.298 707.98942 1780.0664 714.75781 L 1805.8496 740.54297 C 1815.5188 750.2121 1820.998 763.26495 1820.998 776.96289 L 1820.998 832.88281 C 1820.998 840.73422 1817.3667 847.70801 1811.7852 852.44727 C 1872.5955 877.11531 1927.7829 912.83538 1974.8457 957.05859 C 1974.9685 956.83969 1975.0983 956.6254 1975.2207 956.40625 C 1983.1212 942.31669 1990.1663 927.70755 1996.375 912.67773 C 1997.2209 910.6262 1998.0067 908.54458 1998.8203 906.47656 C 2000.9162 901.15777 2002.9048 895.7871 2004.7812 890.36523 C 2005.6239 887.92781 2006.4637 885.48916 2007.2617 883.03125 C 2009.129 877.28441 2010.8498 871.47475 2012.4668 865.62305 C 2012.982 863.7582 2013.5612 861.92027 2014.0508 860.04492 C 2016.036 852.44098 2017.8017 844.75352 2019.3555 836.99023 C 2019.7524 835.00818 2020.0574 832.99417 2020.4258 831.00195 C 2021.527 825.04245 2022.5216 819.04714 2023.3633 813.00391 C 2023.7327 810.35425 2024.0581 807.69093 2024.377 805.02539 C 2025.0687 799.23486 2025.6287 793.40738 2026.0781 787.54883 C 2026.2631 785.14104 2026.4835 782.74341 2026.627 780.32422 C 2027.1131 772.11296 2027.4297 763.85617 2027.4297 755.5293 C 2027.4297 535.37139 1853.8962 354.60071 1636.0918 343.51758 C 1629.0658 343.16006 1621.9946 342.98047 1614.8809 342.98047 z " /><path
   id="path8"
   style="enable-background:new 0 0 2034 2112;display:inline"
   class="st2"
   d="M 417.71094 342.99023 C 190.07117 342.99023 5.1601563 528.27929 5.1601562 755.53906 C 5.1601562 763.8233 5.4777581 772.03718 5.9589844 780.20703 C 6.1087126 782.74479 6.3378133 785.25995 6.5332031 787.78516 C 6.9764758 793.52246 7.5253929 799.2303 8.2011719 804.90234 C 8.5287462 807.64836 8.8629061 810.39193 9.2441406 813.12109 C 10.066782 819.01627 11.039646 824.86416 12.109375 830.67969 C 12.503357 832.82001 12.83289 834.98272 13.259766 837.11133 C 14.800883 844.80019 16.549292 852.41473 18.513672 859.94727 C 19.047133 861.99298 19.678245 863.99804 20.242188 866.03125 C 21.812616 871.69183 23.474526 877.31656 25.279297 882.87891 C 26.116279 885.46043 26.998552 888.02115 27.884766 890.58008 C 29.715974 895.86219 31.651787 901.09505 33.691406 906.2793 C 34.542342 908.44563 35.365608 910.62518 36.251953 912.77344 C 42.440167 927.74399 49.459101 942.2965 57.326172 956.33398 C 57.463467 956.5799 57.60831 956.8208 57.746094 957.06641 C 89.757154 926.98686 125.59794 900.96067 164.33594 879.55078 C 161.50552 873.16196 159.86719 866.12675 159.86719 858.67773 L 159.86719 828.54297 C 159.86719 814.84503 165.34454 801.79022 175.01367 792.12109 L 252.36719 714.76758 C 259.13557 707.99917 268.48321 704.13281 278.15234 704.13281 L 288.78906 704.13281 C 302.97046 704.13281 314.57227 715.73463 314.57227 729.91602 C 314.57227 744.09741 326.17604 755.70117 340.35742 755.70117 C 354.53882 755.70117 366.14063 744.09741 366.14062 729.91602 C 366.14062 715.73463 377.74439 704.13281 391.92578 704.13281 L 402.5625 704.13281 C 412.23163 704.13281 421.57732 707.99919 428.3457 714.76758 L 505.69922 792.12109 C 514.34533 800.7672 519.39803 812.16441 520.42188 824.26367 C 618.75477 843.84517 707.29989 890.93753 777.67578 957.06055 C 777.84871 956.75229 778.03292 956.45132 778.20508 956.14258 C 779.94711 953.02779 781.61052 949.88972 783.26367 946.74805 C 784.52903 944.33364 785.77355 941.90712 786.99219 939.46484 C 788.3425 936.76595 789.68504 934.06366 790.9707 931.33594 C 792.13651 928.86465 793.23369 926.35531 794.35156 923.85742 C 797.71905 916.28859 800.9098 908.62413 803.78906 900.74023 C 806.95155 892.48803 809.80572 884.12798 812.43945 875.67383 C 818.04277 857.23606 822.43227 838.27034 825.42383 818.83789 C 825.45584 818.62436 825.49764 818.41484 825.5293 818.20117 C 826.31968 813.01286 826.92623 807.76563 827.52148 802.51562 C 827.53056 802.42781 827.54568 802.34174 827.55469 802.25391 C 828.06312 797.29719 828.465 792.31078 828.75 787.30078 C 829.26392 782.69807 829.57686 777.91367 829.81445 773.10742 C 830.05896 767.27555 830.25977 761.43113 830.25977 755.53906 C 830.25977 749.20688 830.06344 742.9226 829.78125 736.66016 C 829.70031 734.87323 829.59785 733.09159 829.49414 731.31055 C 829.20987 726.40432 828.83703 721.52277 828.38281 716.66406 C 828.24246 715.16976 828.13678 713.66549 827.98047 712.17578 C 827.37475 706.37661 826.62856 700.61964 825.78516 694.89453 C 825.4558 692.66818 825.07584 690.45893 824.71094 688.24414 C 824.09747 684.5056 823.43004 680.786 822.7168 677.08203 C 822.2333 674.58067 821.76102 672.0751 821.23242 669.58984 C 820.9741 668.37092 820.66359 667.17195 820.39453 665.95703 C 818.61278 657.93999 816.60325 650.00793 814.36133 642.17188 C 814.05818 641.10913 813.76652 640.04165 813.45508 638.98242 C 808.23026 621.26447 801.87731 604.02496 794.42188 587.37695 C 794.30197 587.10873 794.17906 586.84214 794.05859 586.57422 C 767.08594 526.68899 726.25073 474.32982 675.64453 433.65625 C 675.59933 433.61999 675.55303 433.58507 675.50781 433.54883 C 668.60809 428.00809 661.50565 422.71337 654.25391 417.61719 C 653.71361 417.23831 653.18282 416.84706 652.64062 416.4707 C 645.23284 411.31759 637.65933 406.38371 629.91016 401.71484 C 629.71611 401.59823 629.51456 401.49326 629.32031 401.37695 C 622.40812 397.22786 615.32255 393.34522 608.15625 389.59766 C 605.51567 388.22075 602.8749 386.84449 600.20117 385.52344 C 598.11514 384.49615 596.03123 383.46047 593.93164 382.47266 C 591.24305 381.2006 588.51114 380.00629 585.79102 378.79102 C 574.20343 373.66076 562.38011 369.02644 550.06055 364.91992 C 545.76498 363.36559 541.42003 361.93144 537.04102 360.58203 C 532.28633 359.14763 527.50708 357.76964 522.68164 356.50391 C 514.38528 354.33838 505.94706 352.4973 497.45508 350.76367 C 494.18573 350.12334 490.88833 349.56457 487.5918 349.00195 C 484.03228 348.41104 480.48427 347.78885 476.89453 347.2793 C 475.483 347.07649 474.05478 346.92676 472.63867 346.73828 C 467.48307 346.05634 462.31538 345.40756 457.09766 344.90625 C 456.06138 344.80808 455.01115 344.76041 453.97266 344.66992 C 448.59734 344.19303 443.20481 343.76828 437.76367 343.49805 C 431.11667 343.17989 424.43683 342.99023 417.71094 342.99023 z M 350.99219 549.26562 L 417.71094 549.26562 C 446.23487 549.26562 469.2793 572.31006 469.2793 600.83398 C 469.2793 629.35794 446.23487 652.40234 417.71094 652.40234 L 387.57422 652.40234 C 373.87628 652.40234 360.82343 646.92304 351.1543 637.25391 L 325.36914 611.4707 C 318.60075 604.70232 314.73437 595.35469 314.73438 585.68555 L 314.57227 585.68555 C 314.57227 565.54153 330.84817 549.26562 350.99219 549.26562 z M 701.33789 755.53906 C 715.51929 755.53906 727.12305 767.14284 727.12305 781.32422 L 727.12305 832.89258 C 727.12305 847.07396 715.51929 858.67773 701.33789 858.67773 C 687.1565 858.67773 675.55469 847.07396 675.55469 832.89258 L 675.55469 781.32422 C 675.55469 767.14284 687.1565 755.53906 701.33789 755.53906 z " /><path
   id="path10"
   style="enable-background:new 0 0 2034 2112;display:inline"
   class="st3"
   d="M 1614.8906 927.58984 C 1607.7782 927.58984 1600.7075 927.77141 1593.6836 928.12695 C 1591.6507 928.22988 1589.6518 928.45367 1587.627 928.58594 C 1582.682 928.9088 1577.7318 929.21344 1572.8359 929.70898 C 1568.6266 930.13543 1564.4733 930.74267 1560.3027 931.29492 C 1557.6264 931.64886 1554.9216 931.91338 1552.2617 932.31836 C 1545.4939 933.35034 1538.7797 934.54473 1532.125 935.90234 C 1451.9355 952.2617 1380.2521 991.9649 1324.0996 1047.8398 C 1310.8596 1061.0698 1298.3901 1075.4403 1286.6602 1090.5703 C 1274.9402 1105.6903 1264.3495 1121.5799 1255.2695 1138.5898 C 1248.9293 1149.4636 1243.2328 1160.7039 1238.0645 1172.2305 C 1237.7129 1173.0184 1237.3448 1173.7974 1236.998 1174.5879 C 1234.7257 1179.7511 1232.583 1184.9852 1230.5312 1190.2656 C 1230.1927 1191.1332 1229.8387 1191.9928 1229.5059 1192.8633 C 1227.2533 1198.7837 1225.1191 1204.7647 1223.1309 1210.8203 C 1247.4192 1221.2013 1270.7448 1233.3993 1292.9922 1247.1797 C 1333.3798 1107.3318 1462.1373 1004.9434 1615.0508 1004.9434 C 1620.2077 1004.9434 1625.3647 1005.1045 1630.5215 1005.2656 C 1636.9677 1013.6455 1640.8359 1024.1198 1640.8359 1035.7227 C 1640.8359 1048.9371 1635.5167 1061.6687 1626.1699 1071.0156 L 1598.291 1098.8945 C 1592.3283 1104.8572 1589.1055 1112.7539 1589.1055 1120.9727 C 1589.1055 1129.1914 1592.3283 1137.0871 1598.6133 1143.2109 L 1630.3613 1174.959 C 1637.1296 1181.7274 1640.9961 1191.0751 1640.9961 1200.7441 C 1640.9961 1220.8882 1624.7202 1237.1641 1604.5762 1237.1641 L 1548.6562 1237.1641 C 1528.5123 1237.1641 1512.2363 1253.44 1512.2363 1273.584 C 1512.2363 1283.2532 1516.1028 1292.6007 1522.8711 1299.3691 L 1548.6562 1325.1523 C 1558.3254 1334.8213 1571.3782 1340.3008 1585.0762 1340.3008 L 1718.3496 1340.3008 C 1746.8735 1340.3008 1769.918 1363.3453 1769.918 1391.8691 L 1769.918 1447.7891 C 1769.918 1461.4869 1764.4385 1474.5417 1754.7695 1484.2109 L 1681.7676 1557.2129 C 1672.0983 1566.8819 1666.6191 1579.9348 1666.6191 1593.6328 L 1666.6191 1597.9844 C 1666.6191 1626.5082 1643.575 1649.5527 1615.0508 1649.5527 C 1586.5269 1649.5527 1563.4824 1626.5082 1563.4824 1597.9844 L 1563.4824 1567.8477 C 1563.4824 1554.1497 1558.0031 1541.0968 1548.334 1531.4277 L 1526.9004 1509.9941 C 1517.2314 1500.3252 1511.752 1487.2721 1511.752 1473.5742 L 1511.752 1413.1426 C 1511.752 1399.4446 1506.2726 1386.3899 1496.6035 1376.7207 L 1449.3867 1329.5039 C 1439.7177 1319.8348 1426.6647 1314.3555 1412.9668 1314.3555 L 1379.7949 1314.3555 C 1479.8815 1410.0503 1542.2793 1544.8933 1542.2793 1694.0801 C 1542.2793 1711.4266 1541.5296 1728.7626 1539.6523 1745.7227 C 1542.6736 1746.2795 1545.6885 1746.8531 1548.7324 1747.3438 C 1550.4203 1747.6161 1552.1049 1747.9071 1553.7969 1748.1582 C 1558.9618 1748.9248 1564.167 1749.5673 1569.3926 1750.1406 C 1570.8804 1750.303 1572.36 1750.5022 1573.8516 1750.6484 C 1579.2691 1751.1834 1584.7299 1751.5673 1590.207 1751.8906 C 1591.5927 1751.9711 1592.964 1752.1031 1594.3535 1752.1699 C 1601.1584 1752.5035 1608.0029 1752.6895 1614.8906 1752.6895 C 1622.0044 1752.6895 1629.0756 1752.5092 1636.1016 1752.1523 C 1846.88 1741.448 2016.198 1572.13 2026.9023 1361.3516 C 2027.2592 1354.3256 2027.4395 1347.2544 2027.4395 1340.1406 C 2027.4395 1331.7694 2027.1181 1323.4742 2026.623 1315.2285 C 2026.4853 1312.9174 2026.2733 1310.6269 2026.0977 1308.3262 C 2025.616 1302.0633 2025.0158 1295.8362 2024.2559 1289.6562 C 2023.9995 1287.556 2023.7448 1285.4556 2023.457 1283.3652 C 2022.3737 1275.5549 2021.1358 1267.794 2019.6191 1260.1328 C 2019.5909 1259.9892 2019.5713 1259.8428 2019.543 1259.6992 C 2010.9307 1216.4412 1995.5172 1175.6712 1974.5 1138.5898 C 1965.42 1121.9499 1954.8302 1106.0692 1943.4902 1090.9492 C 1931.7702 1075.8292 1919.2897 1061.4598 1905.6797 1047.8398 C 1863.7846 1005.9447 1812.9146 973.13861 1756.2363 952.44922 C 1756.229 952.44654 1756.2222 952.44213 1756.2148 952.43945 C 1755.8498 952.30622 1755.4729 952.19863 1755.1074 952.06641 C 1749.2008 949.9298 1743.2432 947.90151 1737.2148 946.03125 C 1735.4002 945.46876 1733.542 945.00873 1731.7168 944.4707 C 1727.0744 943.10122 1722.4354 941.7223 1717.7266 940.51367 C 1715.0646 939.83083 1712.3504 939.28507 1709.668 938.6543 C 1705.7348 937.72895 1701.8232 936.74726 1697.8477 935.93555 C 1694.3282 935.21724 1690.7507 934.66324 1687.1992 934.03516 C 1683.997 933.46869 1680.8229 932.8202 1677.5957 932.32812 C 1673.6194 931.72194 1669.587 931.29066 1665.5742 930.79883 C 1662.7068 930.44735 1659.8676 930.00324 1656.9824 929.71094 C 1652.8702 929.29433 1648.7056 929.06254 1644.5586 928.76758 C 1641.7235 928.56595 1638.915 928.26906 1636.0645 928.125 C 1629.0507 927.7705 1621.9925 927.58984 1614.8906 927.58984 z M 1912.377 1185.7559 C 1936.5497 1231.8454 1950.0859 1284.382 1950.0859 1340.1406 L 1949.7637 1340.1406 C 1949.7637 1348.3594 1949.6036 1356.5772 1948.959 1364.6348 C 1945.2525 1365.4406 1941.2241 1365.9238 1937.1953 1365.9238 L 1898.3574 1365.9238 C 1869.8335 1365.9238 1846.7891 1342.8794 1846.7891 1314.3555 L 1846.7891 1258.4355 C 1846.7891 1244.7376 1852.2683 1231.6846 1861.9375 1222.0156 L 1883.5312 1200.4219 C 1891.9112 1192.0418 1902.0632 1187.2064 1912.377 1185.7559 z " /><path
   id="path12"
   style="enable-background:new 0 0 2034 2112;display:inline"
   class="st4"
   d="M 417.69922 927.58984 C 417.1247 927.58984 416.56029 927.63047 415.98633 927.63281 C 409.45734 927.65949 402.95597 927.80038 396.50195 928.12695 C 394.21977 928.24245 391.97349 928.4882 389.70117 928.64062 C 385.00006 928.95596 380.28944 929.2375 375.63281 929.70898 C 372.46471 930.02978 369.34584 930.51025 366.19922 930.90234 C 362.46185 931.36799 358.7017 931.76322 354.99609 932.32812 C 351.7835 932.81799 348.62341 933.46375 345.43555 934.02734 C 341.87117 934.65731 338.28214 935.2147 334.75 935.93555 C 330.54876 936.79328 326.41163 937.82205 322.25781 938.80664 C 319.80657 939.38736 317.32277 939.88358 314.88867 940.50781 C 309.58192 941.86959 304.34514 943.40096 299.12305 944.9668 C 297.89776 945.33389 296.64624 945.63943 295.42578 946.01758 C 231.07875 965.9726 173.46569 1001.2941 126.91992 1047.8398 C 113.30994 1061.0698 100.83046 1075.4403 89.480469 1090.5703 C 77.76048 1105.6903 67.169835 1121.5799 58.089844 1138.5898 C 37.072681 1175.6712 21.659102 1216.4412 13.046875 1259.6992 C 13.018501 1259.8428 12.998928 1259.9892 12.970703 1260.1328 C 11.454022 1267.794 10.216138 1275.5549 9.1328125 1283.3652 C 8.8450073 1285.4556 8.5903551 1287.556 8.3339844 1289.6562 C 7.5740404 1295.8362 6.97382 1302.0633 6.4921875 1308.3262 C 6.3165753 1310.6269 6.104522 1312.9174 5.9667969 1315.2285 C 5.4717505 1323.4742 5.1503906 1331.7694 5.1503906 1340.1406 C 5.1503906 1346.9491 5.3370438 1353.7132 5.6640625 1360.4414 C 5.7638322 1362.4999 5.9561056 1364.5335 6.0859375 1366.584 C 6.3817809 1371.2433 6.6968371 1375.8974 7.1464844 1380.5137 C 7.3777502 1382.8943 7.6893838 1385.2505 7.9609375 1387.6191 C 8.4552551 1391.9195 8.9698872 1396.2134 9.5957031 1400.4727 C 9.9386707 1402.8127 10.338622 1405.1338 10.720703 1407.4609 C 11.427744 1411.7568 12.174742 1416.0388 13.013672 1420.2891 C 13.443275 1422.4706 13.903342 1424.6414 14.367188 1426.8105 C 15.320004 1431.256 16.33661 1435.6771 17.431641 1440.0684 C 17.901586 1441.9571 18.379129 1443.8424 18.875 1445.7207 C 20.138154 1450.4951 21.489337 1455.2342 22.917969 1459.9395 C 23.354434 1461.3798 23.77677 1462.8261 24.228516 1464.2598 C 25.955179 1469.7288 27.79032 1475.1493 29.736328 1480.5176 C 29.958887 1481.1327 30.165228 1481.7554 30.390625 1482.3691 C 69.8025 1589.4868 152.41279 1675.8189 257.04883 1720.1699 C 257.13696 1720.2072 257.22434 1720.246 257.3125 1720.2832 C 263.44578 1722.8778 269.65352 1725.3309 275.93359 1727.6328 C 301.13633 1736.8708 327.48837 1743.7139 354.71094 1747.8945 C 355.01866 1747.9415 355.33069 1747.9772 355.63867 1748.0234 C 361.494 1748.909 367.39914 1749.6392 373.33203 1750.2754 C 374.97774 1750.4505 376.62879 1750.6098 378.28125 1750.7656 C 383.14018 1751.2276 388.02732 1751.5893 392.93359 1751.8809 C 394.70746 1751.9853 396.47307 1752.1151 398.25391 1752.1973 C 404.70201 1752.4975 411.17763 1752.6895 417.69922 1752.6895 C 424.35873 1752.6895 430.93598 1752.5148 437.47266 1752.2207 C 440.61451 1752.0754 443.7213 1751.8049 446.84375 1751.5898 C 450.4811 1751.3393 454.12674 1751.1174 457.73828 1750.7617 C 460.87167 1750.4623 463.9829 1750.0659 467.09961 1749.6953 C 470.34855 1749.308 473.60285 1748.937 476.82812 1748.4746 C 479.94051 1748.0282 483.0362 1747.4947 486.13477 1746.9766 C 488.40952 1746.5971 490.68139 1746.2115 492.94336 1745.7949 C 491.0603 1728.8021 490.31055 1711.4411 490.31055 1694.0801 C 490.31055 1685.0614 490.62179 1676.1173 491.07227 1667.209 C 476.19277 1670.5278 460.97227 1672.9437 445.41797 1674.209 C 444.2899 1670.5025 443.64648 1666.4741 443.64648 1662.4453 C 443.64648 1641.012 426.40199 1623.7676 404.96875 1623.7676 L 361.94141 1623.7676 C 348.24347 1623.7676 335.19061 1618.2882 325.52148 1608.6191 L 278.30273 1561.4023 C 268.6336 1551.7332 263.1543 1538.6804 263.1543 1524.9824 L 263.1543 1417.4922 C 263.1543 1388.9683 286.20068 1365.9238 314.72461 1365.9238 L 473.78125 1365.9238 C 487.47919 1365.9238 500.53204 1371.4032 510.20117 1381.0723 L 557.41992 1428.291 C 558.49224 1429.3633 559.74661 1430.1829 560.89844 1431.1504 C 578.9589 1400.0023 600.1264 1370.8829 623.97461 1344.2031 L 623.97461 1262.7871 C 623.97461 1248.6057 635.57838 1237.002 649.75977 1237.002 C 663.94116 1237.002 675.54297 1225.4001 675.54297 1211.2188 C 675.54297 1197.0374 663.94116 1185.4336 649.75977 1185.4336 L 611.08203 1185.4336 C 589.64879 1185.4336 572.40625 1202.6762 572.40625 1224.1094 C 572.40625 1245.5427 555.16371 1262.7871 533.73047 1262.7871 L 443.48438 1262.7871 C 429.30298 1262.7871 417.69922 1274.3889 417.69922 1288.5703 C 417.69922 1302.7518 406.09741 1314.3555 391.91602 1314.3555 L 350.98242 1314.3555 C 330.8384 1314.3555 314.5625 1298.0795 314.5625 1277.9355 C 314.5625 1268.2665 318.43084 1258.9188 325.19922 1252.1504 L 438.16602 1139.1836 C 441.55021 1135.7994 443.48438 1131.1256 443.48438 1126.291 C 443.48438 1116.2996 435.26487 1108.0801 425.27344 1108.0801 L 402.55078 1108.0801 C 382.40675 1108.0801 366.13086 1091.8041 366.13086 1071.6602 C 366.13086 1061.9911 369.99918 1052.6434 376.76758 1045.875 L 413.99414 1008.6504 C 415.28336 1007.3612 416.57112 1006.2315 418.02148 1005.1035 L 418.02148 1004.9434 C 570.72961 1005.0764 699.40879 1107.3632 739.71289 1247.1035 C 761.92523 1233.3537 785.21455 1221.1828 809.46094 1210.8203 C 807.47285 1204.7653 805.33634 1198.7851 803.08398 1192.8652 C 802.75096 1191.9942 802.39734 1191.1338 802.05859 1190.2656 C 800.00684 1184.9852 797.86415 1179.7511 795.5918 1174.5879 C 795.24501 1173.7974 794.87698 1173.0184 794.52539 1172.2305 C 789.35706 1160.7039 783.66054 1149.4636 777.32031 1138.5898 C 772.84063 1130.1836 767.98407 1122.0599 762.80859 1114.1641 C 762.72303 1114.0336 762.64235 1113.8998 762.55664 1113.7695 C 757.32804 1105.8169 751.77051 1098.0992 745.92969 1090.5703 C 734.5897 1075.4403 722.11022 1061.0698 708.49023 1047.8398 C 666.60429 1005.9539 615.75043 973.15306 559.08984 952.46289 C 558.11522 952.10741 557.11281 951.81121 556.13477 951.46289 C 550.81805 949.56727 545.47724 947.72145 540.0625 946.04102 C 537.64276 945.2907 535.16906 944.66769 532.73047 943.96094 C 528.69075 942.78929 524.66978 941.57359 520.58008 940.52344 C 517.11541 939.63428 513.58908 938.90432 510.08984 938.10352 C 506.95831 937.38656 503.85741 936.58848 500.69922 935.94336 C 496.42946 935.07144 492.09794 934.37759 487.78125 933.63867 C 485.32678 933.21845 482.90262 932.70864 480.43359 932.33203 C 475.75197 931.61799 471.01132 931.08656 466.2793 930.53125 C 464.11892 930.27775 461.98681 929.93286 459.81641 929.71289 C 454.98215 929.22285 450.09309 928.92521 445.21094 928.60352 C 443.09777 928.46434 441.01035 928.23224 438.88867 928.125 C 431.87436 927.77024 424.81346 927.59004 417.71094 927.58984 L 417.69922 927.58984 z M 288.77734 1082.377 C 295.38458 1082.377 301.99257 1084.8754 306.98828 1089.8711 C 316.97972 1099.8626 316.97972 1116.2996 306.98828 1126.291 L 255.41992 1177.8594 C 245.42849 1187.8508 228.99144 1187.8508 219 1177.8594 C 209.00857 1167.8679 209.00857 1151.4308 219 1141.4395 L 270.56836 1089.8711 C 275.56408 1084.8754 282.1701 1082.377 288.77734 1082.377 z " /><path
   d="M 1170.2595,1732.9589 H 862.48172 c 4.67552,103.9899 27.73064,199.7573 60.45923,269.89 18.37961,39.5 38.21023,67.3919 56.58984,84.4817 18.05716,16.9286 30.47141,19.6694 36.92041,19.6694 6.449,0 18.8633,-2.7408 36.9205,-19.6694 18.3796,-17.0898 38.2102,-45.1429 56.5898,-84.4817 32.7286,-70.1327 55.7837,-165.9001 60.4592,-269.89 z m -307.939,-77.3878 h 307.7778 c -4.5143,-103.9899 -27.5694,-199.7573 -60.298,-269.89 -18.3796,-39.3388 -38.2103,-67.3919 -56.5899,-84.4817 -18.0571,-16.9286 -30.4714,-19.6694 -36.9204,-19.6694 -6.449,0 -18.86328,2.7408 -36.92044,19.6694 -18.3796,17.0898 -38.21023,45.1429 -56.58983,84.4817 -32.7286,70.1327 -55.78372,165.9001 -60.45923,269.89 z m -77.38781,0 c 5.64286,-138.0083 41.2735,-266.1818 93.34904,-350.3411 -148.48786,52.5592 -257.79815,187.8267 -272.95326,350.3411 z m -179.60422,77.3878 c 15.15511,162.5144 124.4654,297.7819 272.95326,350.3411 -52.07554,-84.1593 -87.70618,-212.3328 -93.34904,-350.3411 z m 642.31883,0 c -5.6428,138.0083 -41.2735,266.1818 -93.349,350.3411 148.4878,-52.7205 257.7981,-187.8267 272.9532,-350.3411 z m 179.6042,-77.3878 c -15.1551,-162.5144 -124.4654,-297.7819 -272.9532,-350.3411 52.0755,84.1593 87.7062,212.3328 93.349,350.3411 z"
   id="path250"
   style="enable-background:new 0 0 2034 2112;display:inline;stroke-width:1.61225;fill:#d9a07d;fill-opacity:1" /></svg>
