<?xml version="1.0" encoding="UTF-8" standalone="no"?>
<!-- Created with Inkscape (http://www.inkscape.org/) -->

<svg
   version="1.1"
   id="svg2"
   width="357.86133"
   height="893.41406"
   viewBox="0 0 357.86133 893.41406"
   xmlns="http://www.w3.org/2000/svg"
   xmlns:svg="http://www.w3.org/2000/svg">
  <g
     id="g8"
     transform="matrix(1.3333333,0,0,-1.3333333,-1040.873,971.72071)">
    <path
       id="path1834"
       style="color:#000000;fill:#000000;stroke-linecap:round;-inkscape-stroke:none"
       d="M 853.96731,728.79055 780.6548,616.84132 851.31755,535.38916 c -2.46989,-71.98841 3.3331,-179.16726 3.3331,-179.16726 L 789.4673,75.490725 843.16262,58.729982 910.51614,274.50294 920.10793,274.33301 987.41018,58.729982 1041.104,75.490725 974.11277,361.03991 c 0,0 8.47852,103.16535 6.70094,173.46102 l 68.23709,82.34039 -73.31103,111.94923 -21.96094,-14.38038 48.62447,-94.35091 -53.17033,-42.56247 c 0,0 -18.76262,5.17101 -34.3815,5.14165 -15.61888,-0.0294 -32.05493,-2.32872 -32.05493,-2.32872 l -55.82936,40.18254 48.95813,93.91791 z" />
    <circle
       style="fill:#000000;stroke-width:85.2893;stroke-linecap:round"
       id="circle1844"
       cx="673.77997"
       cy="-893.75323"
       r="45.738838"
       transform="matrix(0.95210321,-0.30577685,-0.30577685,-0.95210321,0,0)" />
  </g>
</svg>
