<?xml version="1.0" encoding="UTF-8" standalone="no"?>
<svg
   inkscape:export-ydpi="76.800003"
   inkscape:export-xdpi="76.800003"
   inkscape:export-filename="map-pins-icon-perspective.png"
   inkscape:version="1.2.2 (b0a8486541, 2022-12-01)"
   xml:space="preserve"
   sodipodi:docname="map-pins-icon-perspective.svg"
   id="svg4"
   version="1.1"
   viewBox="0 0 640 640"
   xmlns:inkscape="http://www.inkscape.org/namespaces/inkscape"
   xmlns:sodipodi="http://sodipodi.sourceforge.net/DTD/sodipodi-0.dtd"
   xmlns="http://www.w3.org/2000/svg"
   xmlns:svg="http://www.w3.org/2000/svg"><defs
     id="defs8"><inkscape:path-effect
       effect="offset"
       id="path-effect1669"
       is_visible="true"
       lpeversion="1.2"
       linejoin_type="miter"
       unit="mm"
       offset="-6.3"
       miter_limit="4"
       attempt_force_join="false"
       update_on_knot_move="true" /></defs><sodipodi:namedview
     id="namedview6"
     pagecolor="#ffffff"
     bordercolor="#666666"
     borderopacity="1.0"
     inkscape:showpageshadow="2"
     inkscape:pageopacity="0.0"
     inkscape:pagecheckerboard="0"
     inkscape:deskcolor="#d1d1d1"
     showgrid="false"
     inkscape:zoom="0.33984375"
     inkscape:cx="153.01149"
     inkscape:cy="488.45977"
     inkscape:window-width="1118"
     inkscape:window-height="843"
     inkscape:window-x="2036"
     inkscape:window-y="138"
     inkscape:window-maximized="0"
     inkscape:current-layer="svg4"
     showguides="false" /><path
     style="fill:#b0c4de;fill-opacity:1;stroke:#003680;stroke-width:48;stroke-linecap:butt;stroke-linejoin:round;stroke-dasharray:none;stroke-opacity:1"
     d="M -341.49553,-291.52019 V -643.5917 l 135.9017,-64.12059 194.411198,66.15622 133.687102,-66.12906 v 352.04571 l -135.990172,64.10816 -192.175078,-64.04002 z"
     id="path1688" /><!--!Font Awesome Free 7.2.0 by @fontawesome - https://fontawesome.com License - https://fontawesome.com/license/free Copyright 2026 Fonticons, Inc.--><path
     style="fill:#b0c4de;fill-opacity:1;stroke:#003680;stroke-width:16;stroke-linecap:butt;stroke-linejoin:round;stroke-dasharray:none;stroke-opacity:1"
     d="m 87.999769,561.34761 59.840161,-354.26385 100.84834,-65.09697 144.26639,67.1636 99.20495,-67.13603 59.84016,355.21402 -135.99017,64.10816 -192.17508,-64.04002 z"
     id="path3790"
     sodipodi:nodetypes="ccccccccc" /><path
     style="fill:#c97682;fill-opacity:1;stroke-width:0.346292"
     d="m 332.00704,141.13918 c 22.19724,-5.02121 38.78457,-24.8983 38.78457,-48.61921 0,-27.53013 -22.33576,-49.86586 -49.86587,-49.86586 -27.53013,0 -49.86585,22.33573 -49.86585,49.86586 0,23.72091 16.58731,43.598 38.78455,48.61921 v 67.73446 c 0,6.12935 4.95196,11.08131 11.0813,11.08131 6.12935,0 11.0813,-4.95196 11.0813,-11.08131 z"
     id="use6058" /><path
     style="fill:none;stroke:#000000;stroke-width:1px;stroke-linecap:butt;stroke-linejoin:miter;stroke-opacity:1"
     d="m -371.78928,167.41466 -1.18501,351.08291"
     id="path2218" /><path
     style="fill:none;stroke:#000000;stroke-width:1px;stroke-linecap:butt;stroke-linejoin:miter;stroke-opacity:1"
     d="m -444.20808,131.16783 -24.8537,355.30973"
     id="path3786"
     sodipodi:nodetypes="cc" /><path
     style="fill:none;stroke:#000000;stroke-width:1px;stroke-linecap:butt;stroke-linejoin:miter;stroke-opacity:1"
     d="M -276.88675,550.51758 -299.94169,198.33143"
     id="path3788"
     sodipodi:nodetypes="cc" /><g
     id="g11880"
     transform="translate(-45.59976,31.986808)"><path
       id="rect10958"
       style="fill:none;stroke:#ff3680;stroke-width:0.846359;stroke-linejoin:round;stroke-miterlimit:8;stroke-dasharray:none;stroke-opacity:1"
       d="m -473.0126,133.86414 h 58.49104 58.49274 58.49189 58.49274 58.49274 l 7.86691,55.28504 8.76236,61.57095 9.81861,68.99606 11.07885,77.84982 12.59806,88.52326 h -78.54215 -78.5413 -78.54214 -78.54299 -78.54215 l 12.59721,-88.52326 11.07885,-77.84813 9.81861,-68.99691 8.76236,-61.57179 z" /><path
       style="fill:none;stroke:#000000;stroke-width:1px;stroke-linecap:butt;stroke-linejoin:miter;stroke-opacity:1"
       d="m -480.88036,189.14918 h 308.19582"
       id="path11867" /><path
       style="fill:none;stroke:#000000;stroke-width:1px;stroke-linecap:butt;stroke-linejoin:miter;stroke-opacity:1"
       d="m -489.64272,250.72097 325.72054,-8.4e-4"
       id="path11869" /><path
       style="fill:none;stroke:#000000;stroke-width:1px;stroke-linecap:butt;stroke-linejoin:miter;stroke-opacity:1"
       d="m -499.46133,319.71788 345.35776,-0.002"
       id="path11871" /><path
       style="fill:none;stroke:#000000;stroke-width:1px;stroke-linecap:butt;stroke-linejoin:miter;stroke-opacity:1"
       d="m -510.54018,397.56601 h 367.51546"
       id="path11873" /></g><path
     style="fill:#eee391;fill-opacity:1;stroke-width:0.346292"
     d="m 251.37975,223.11229 c 22.19724,-5.02121 38.78457,-24.8983 38.78457,-48.61921 0,-27.53013 -22.33576,-49.86586 -49.86587,-49.86586 -27.53013,0 -49.86585,22.33573 -49.86585,49.86586 0,23.72091 16.58731,43.598 38.78455,48.61921 v 67.73446 c 0,6.12935 4.95196,11.08131 11.0813,11.08131 6.12935,0 11.0813,-4.95196 11.0813,-11.08131 z"
     id="use7335" /><path
     style="fill:#75c275;fill-opacity:1;stroke-width:0.346292"
     d="m 411.68563,233.19063 c 22.19724,-5.02121 38.78457,-24.8983 38.78457,-48.61921 0,-27.53013 -22.33576,-49.86586 -49.86587,-49.86586 -27.53013,0 -49.86585,22.33573 -49.86585,49.86586 0,23.72091 16.58731,43.598 38.78455,48.61921 v 67.73446 c 0,6.12935 4.95196,11.08131 11.0813,11.08131 6.12935,0 11.0813,-4.95196 11.0813,-11.08131 z"
     id="use7333" /><path
     style="fill:#ca94c2;fill-opacity:1;stroke-width:0.346292"
     d="m 416.20226,352.18644 c 22.19724,-5.02121 38.78457,-24.8983 38.78457,-48.61921 0,-27.53013 -22.33576,-49.86586 -49.86587,-49.86586 -27.53013,0 -49.86585,22.33573 -49.86585,49.86586 0,23.72091 16.58731,43.598 38.78455,48.61921 v 67.73446 c 0,6.12935 4.95196,11.08131 11.0813,11.08131 6.12935,0 11.0813,-4.95196 11.0813,-11.08131 z"
     id="use7191" /><path
     style="fill:#767ebd;fill-opacity:1;stroke-width:0.346292"
     d="m 246.55347,340.10897 c 22.19724,-5.02121 38.78457,-24.8983 38.78457,-48.61921 0,-27.53013 -22.33576,-49.86586 -49.86587,-49.86586 -27.53013,0 -49.86585,22.33573 -49.86585,49.86586 0,23.72091 16.58731,43.598 38.78455,48.61921 v 67.73446 c 0,6.12935 4.95196,11.08131 11.0813,11.08131 6.12935,0 11.0813,-4.95196 11.0813,-11.08131 z"
     id="use7331" /><path
     style="fill:#d9a07d;fill-opacity:1;stroke-width:0.346292"
     d="m 331.30358,423.55601 c 22.19724,-5.02121 38.78457,-24.8983 38.78457,-48.61921 0,-27.53013 -22.33576,-49.86586 -49.86587,-49.86586 -27.53013,0 -49.86585,22.33573 -49.86585,49.86586 0,23.72091 16.58731,43.598 38.78455,48.61921 v 67.73446 c 0,6.12935 4.95196,11.08131 11.0813,11.08131 6.12935,0 11.0813,-4.95196 11.0813,-11.08131 z"
     id="use7120" /></svg>
