<?xml version="1.0" encoding="UTF-8" standalone="no"?>
<svg
   viewBox="0 0 640 640"
   version="1.1"
   id="svg4"
   sodipodi:docname="map-pins-icon.svg"
   xml:space="preserve"
   inkscape:version="1.2.2 (b0a8486541, 2022-12-01)"
   inkscape:export-filename="../public/favicon.png"
   inkscape:export-xdpi="25.516453"
   inkscape:export-ydpi="25.516453"
   xmlns:inkscape="http://www.inkscape.org/namespaces/inkscape"
   xmlns:sodipodi="http://sodipodi.sourceforge.net/DTD/sodipodi-0.dtd"
   xmlns="http://www.w3.org/2000/svg"
   xmlns:svg="http://www.w3.org/2000/svg"><defs
     id="defs8"><inkscape:path-effect
       effect="offset"
       id="path-effect1669"
       is_visible="true"
       lpeversion="1.2"
       linejoin_type="miter"
       unit="mm"
       offset="-6.3"
       miter_limit="4"
       attempt_force_join="false"
       update_on_knot_move="true" /></defs><sodipodi:namedview
     id="namedview6"
     pagecolor="#ffffff"
     bordercolor="#666666"
     borderopacity="1.0"
     inkscape:showpageshadow="2"
     inkscape:pageopacity="0.0"
     inkscape:pagecheckerboard="0"
     inkscape:deskcolor="#d1d1d1"
     showgrid="false"
     inkscape:zoom="0.48061164"
     inkscape:cx="178.93865"
     inkscape:cy="141.48638"
     inkscape:window-width="1452"
     inkscape:window-height="749"
     inkscape:window-x="2173"
     inkscape:window-y="275"
     inkscape:window-maximized="0"
     inkscape:current-layer="svg4" /><!--!Font Awesome Free 7.2.0 by @fontawesome - https://fontawesome.com License - https://fontawesome.com/license/free Copyright 2026 Fonticons, Inc.--><path
     style="fill:#b0c4de;stroke:#003680;stroke-width:20;stroke-linecap:butt;stroke-linejoin:round;stroke-dasharray:none;stroke-opacity:1;fill-opacity:1"
     d="M 89.214177,574.7862 V 184.22525 L 224.50242,113.21417 417.48711,186.44435 550.78582,113.21417 V 503.77511 L 415.49758,574.7862 224.50242,503.77511 Z"
     id="path1734"
     sodipodi:nodetypes="ccccccccc" /><path
     style="fill:#c97682;fill-opacity:1;stroke-width:0.346292"
     d="m 331.08191,278.40293 c 22.19724,-5.02121 38.78457,-24.8983 38.78457,-48.61921 0,-27.53013 -22.33576,-49.86586 -49.86587,-49.86586 -27.53013,0 -49.86585,22.33573 -49.86585,49.86586 0,23.72091 16.58731,43.598 38.78455,48.61921 v 67.73446 c 0,6.12935 4.95196,11.08131 11.0813,11.08131 6.12935,0 11.0813,-4.95196 11.0813,-11.08131 z"
     id="use6058" /><path
     style="fill:#b0c4de;fill-opacity:1;stroke-width:0.346292"
     d="m 322.77094,213.16177 c -10.70039,0 -19.39228,8.69189 -19.39228,19.39226 0,4.60567 -3.70532,8.31098 -8.31098,8.31098 -4.60568,0 -8.31099,-3.70531 -8.31099,-8.31098 0,-19.87709 16.13715,-36.01423 36.01425,-36.01423 4.60566,0 8.31097,3.70531 8.31097,8.31098 0,4.60567 -3.70531,8.31099 -8.31097,8.31099 z"
     id="path8101" /><path
     style="fill:#75c275;fill-opacity:1;stroke-width:0.346292"
     d="m 403.75997,319.09657 c 22.19724,-5.02121 38.78457,-24.8983 38.78457,-48.61921 0,-27.53013 -22.33576,-49.86586 -49.86587,-49.86586 -27.53013,0 -49.86585,22.33573 -49.86585,49.86586 0,23.72091 16.58731,43.598 38.78455,48.61921 v 67.73446 c 0,6.12935 4.95196,11.08131 11.0813,11.08131 6.12935,0 11.0813,-4.95196 11.0813,-11.08131 z"
     id="use7333" /><path
     style="fill:#b0c4de;fill-opacity:1;stroke-width:0.346292"
     d="m 395.449,253.85541 c -10.70039,0 -19.39228,8.69189 -19.39228,19.39226 0,4.60567 -3.70532,8.31098 -8.31098,8.31098 -4.60568,0 -8.31099,-3.70531 -8.31099,-8.31098 0,-19.87709 16.13715,-36.01423 36.01425,-36.01423 4.60566,0 8.31097,3.70531 8.31097,8.31098 0,4.60567 -3.70531,8.31099 -8.31097,8.31099 z"
     id="path8097" /><path
     style="fill:#ca94c2;fill-opacity:1;stroke-width:0.346292"
     d="m 403.76118,389.9484 c 22.19724,-5.02121 38.78457,-24.8983 38.78457,-48.61921 0,-27.53013 -22.33576,-49.86586 -49.86587,-49.86586 -27.53013,0 -49.86585,22.33573 -49.86585,49.86586 0,23.72091 16.58731,43.598 38.78455,48.61921 v 67.73446 c 0,6.12935 4.95196,11.08131 11.0813,11.08131 6.12935,0 11.0813,-4.95196 11.0813,-11.08131 z"
     id="use7191" /><path
     style="fill:#b0c4de;fill-opacity:1;stroke-width:0.346292"
     d="m 395.45021,324.70724 c -10.70039,0 -19.39228,8.69189 -19.39228,19.39226 0,4.60567 -3.70532,8.31098 -8.31098,8.31098 -4.60568,0 -8.31099,-3.70531 -8.31099,-8.31098 0,-19.87709 16.13715,-36.01423 36.01425,-36.01423 4.60566,0 8.31097,3.70531 8.31097,8.31098 0,4.60567 -3.70531,8.31099 -8.31097,8.31099 z"
     id="path8093" /><path
     style="fill:#eee391;fill-opacity:1;stroke-width:0.346292"
     d="m 258.40262,319.09778 c 22.19724,-5.02121 38.78457,-24.8983 38.78457,-48.61921 0,-27.53013 -22.33576,-49.86586 -49.86587,-49.86586 -27.53013,0 -49.86585,22.33573 -49.86585,49.86586 0,23.72091 16.58731,43.598 38.78455,48.61921 v 67.73446 c 0,6.12935 4.95196,11.08131 11.0813,11.08131 6.12935,0 11.0813,-4.95196 11.0813,-11.08131 z"
     id="use7335" /><path
     style="fill:#b0c4de;fill-opacity:1;stroke-width:0.346292"
     d="m 250.09165,253.85662 c -10.70039,0 -19.39228,8.69189 -19.39228,19.39226 0,4.60567 -3.70532,8.31098 -8.31098,8.31098 -4.60568,0 -8.31099,-3.70531 -8.31099,-8.31098 0,-19.87709 16.13715,-36.01423 36.01425,-36.01423 4.60566,0 8.31097,3.70531 8.31097,8.31098 0,4.60567 -3.70531,8.31099 -8.31097,8.31099 z"
     id="path8105" /><path
     style="fill:#767ebd;fill-opacity:1;stroke-width:0.346292"
     d="m 258.4014,389.9484 c 22.19724,-5.02121 38.78457,-24.8983 38.78457,-48.61921 0,-27.53013 -22.33576,-49.86586 -49.86587,-49.86586 -27.53013,0 -49.86585,22.33573 -49.86585,49.86586 0,23.72091 16.58731,43.598 38.78455,48.61921 v 67.73446 c 0,6.12935 4.95196,11.08131 11.0813,11.08131 6.12935,0 11.0813,-4.95196 11.0813,-11.08131 z"
     id="use7331" /><path
     style="fill:#b0c4de;fill-opacity:1;stroke-width:0.346292"
     d="m 250.09043,324.70724 c -10.70039,0 -19.39228,8.69189 -19.39228,19.39226 0,4.60567 -3.70532,8.31098 -8.31098,8.31098 -4.60568,0 -8.31099,-3.70531 -8.31099,-8.31098 0,-19.87709 16.13715,-36.01423 36.01425,-36.01423 4.60566,0 8.31097,3.70531 8.31097,8.31098 0,4.60567 -3.70531,8.31099 -8.31097,8.31099 z"
     id="path8109" /><path
     style="fill:#d9a07d;fill-opacity:1;stroke-width:0.346292"
     d="m 331.0807,432.84417 c 22.19724,-5.02121 38.78457,-24.8983 38.78457,-48.61921 0,-27.53013 -22.33576,-49.86586 -49.86587,-49.86586 -27.53013,0 -49.86585,22.33573 -49.86585,49.86586 0,23.72091 16.58731,43.598 38.78455,48.61921 v 67.73446 c 0,6.12935 4.95196,11.08131 11.0813,11.08131 6.12935,0 11.0813,-4.95196 11.0813,-11.08131 z"
     id="use7120" /><path
     style="fill:#b0c4de;fill-opacity:1;stroke-width:0.346292"
     d="m 322.76973,367.60301 c -10.70039,0 -19.39228,8.69189 -19.39228,19.39226 0,4.60567 -3.70532,8.31098 -8.31098,8.31098 -4.60568,0 -8.31099,-3.70531 -8.31099,-8.31098 0,-19.87709 16.13715,-36.01423 36.01425,-36.01423 4.60566,0 8.31097,3.70531 8.31097,8.31098 0,4.60567 -3.70531,8.31099 -8.31097,8.31099 z"
     id="path8113" /></svg>
