<?xml version="1.0" encoding="UTF-8" standalone="no"?>
<!-- Created with Inkscape (http://www.inkscape.org/) -->

<svg
   version="1.1"
   id="svg2"
   width="588.00287"
   height="441.39081"
   viewBox="0 0 588.00287 441.39081"
   xmlns="http://www.w3.org/2000/svg"
   xmlns:svg="http://www.w3.org/2000/svg">
  <g
     id="g8"
     transform="matrix(1.3333333,0,0,-1.3333333,2525.7295,656.19091)">
    <path
       id="path3405"
       style="color:#000000;fill:#000000;stroke-linecap:round;-inkscape-stroke:none"
       d="m -1818.2165,478.89866 -11.9912,-23.35107 63.7369,-32.73047 -41.6341,-31.0676 c -16.889,7.28611 -34.9622,1.29297 -47.5416,-15.22034 -18.4135,-24.17176 45.1549,-137.31221 85.0826,-192.97898 9.7949,-13.6565 25.5371,-21.66111 42.3413,-21.90088 l 38.3929,-0.5478 c 18.1397,-0.25882 50.0603,34.63461 62.5508,63.10881 l 19.644,31.06821 95.6512,-89.33806 58.6887,0.46753 -152.4459,164.68205 -84.7126,-65.68506 -19.7644,1.16748 c -26.8134,32.72885 -61.8143,84.40336 -61.8143,84.40336 l 47.6731,62.91559 c 6.0355,7.96524 7.5651,18.00395 -1.3242,22.57031 z" />
    <circle
       style="fill:#000000;stroke-width:85.2893;stroke-linecap:round"
       id="circle1106"
       cx="1411.5076"
       cy="-1274.3983"
       r="45.738838" />
  </g>
</svg>
