<?xml version="1.0" encoding="UTF-8" standalone="no"?>
<!-- Created with Inkscape (http://www.inkscape.org/) -->

<svg
   version="1.1"
   id="svg2"
   width="643.3103"
   height="852.54108"
   viewBox="0 0 643.3103 852.54108"
   xmlns="http://www.w3.org/2000/svg"
   xmlns:svg="http://www.w3.org/2000/svg">
  <g
     id="g8"
     transform="matrix(1.3333333,0,0,-1.3333333,1797.5506,924.61366)">
    <path
       id="path1712"
       style="color:#000000;fill:#000000;stroke-linecap:round;-inkscape-stroke:none"
       d="m -924.7488,592.67165 c -45.2204,0 -52.0715,-63.07187 -52.0715,-63.07187 l -49.0343,-54.99146 -97.486,-20.9108 4.5293,-25.85596 111.3381,9.74233 30.6095,34.31892 2.1139,-142.23132 -27.1992,-91.08481 -2.3599,-182.143077 56.2456,-0.728027 2.2485,173.550304 13.1983,40.35205 2.4932,-215.307139 56.2456,0.65039 -2.855,246.552259 c 0,0 11.0522,52.76552 11.0522,80.9209 0,33.00968 0.5954,210.23731 -59.0683,210.23731 z" />
    <circle
       style="fill:#000000;stroke-width:85.2893;stroke-linecap:round"
       id="circle1094"
       cx="-1069.0138"
       cy="-363.61011"
       r="45.738838"
       transform="matrix(0.96020207,-0.27930626,-0.27930626,-0.96020207,0,0)" />
    <path
       id="path1852"
       style="color:#000000;fill:#000000;stroke-linecap:round;-inkscape-stroke:none"
       d="m -1233.0262,592.41676 c -70.0637,0 -85.1444,-98.79137 -115.1368,-154.47499 l 23.94,-108.63732 26.1211,2.6045 -6.7818,98.52288 15.1299,26.93366 -2.3408,-75.1875 5.4522,-55.84131 c 0.9363,-9.5895 5.6832,-17.76617 5.5986,-25.07813 l -2.8535,-246.553716 56.2471,-0.650391 2.4931,215.312997 13.1983,-40.35791 2.247,-173.550302 56.2471,0.728028 -2.3613,182.143074 -14.9659,84.09503 c -8.0354,71.07379 26.8861,269.9914 -62.2343,269.9914 z" />
    <circle
       style="fill:#000000;stroke-width:85.2893;stroke-linecap:round"
       id="circle1862"
       cx="1002.9575"
       cy="-966.04395"
       r="45.738838" />
  </g>
</svg>
