<?xml version="1.0" encoding="UTF-8" standalone="no"?>
<!-- Created with Inkscape (http://www.inkscape.org/) -->

<svg
   version="1.1"
   id="svg2"
   width="816"
   height="1056"
   viewBox="0 0 816 1056"
   xml:space="preserve"
   xmlns="http://www.w3.org/2000/svg"
   xmlns:svg="http://www.w3.org/2000/svg"><defs
     id="defs6" /><g
     id="g8"
     transform="matrix(1.3333333,0,0,-1.3333333,0,1056)"><path
       style="stroke-width:29.1428"
       d="m 349.7143,262.28571 c -38.76,-65.57143 -38.76,-153 0,-262.28571 -6.70287,0 -35.84574,0 -87.42859,0 0,158.82857 29.14286,246.25714 87.42859,262.28571 z"
       id="path4860" /><path
       style="stroke-width:29.1428"
       d="m 262.28571,262.28571 c -38.76,-65.57143 -38.76,-153 0,-262.28571 -6.70286,0 -35.84571,0 -87.42857,0 0,158.82857 29.14285,246.25714 87.42857,262.28571 z"
       id="path4858" /><path
       style="stroke-width:29.1428"
       d="M 87.428571,262.28571 C 48.668565,196.71428 48.668565,109.28571 87.428571,0 80.725707,0 51.582857,0 0,0 0,158.82857 29.14285,246.25714 87.428571,262.28571 Z"
       id="path4856" /><path
       style="stroke-width:29.1428"
       d="m 174.85714,262.28571 c -38.76,-65.57143 -38.76,-153 0,-262.28571 -6.70285,0 -35.84571,0 -87.428569,0 0,158.82857 29.142849,246.25714 87.428569,262.28571 z"
       id="path4854" /><path
       style="stroke-width:29.1428"
       d="m 612.00002,262.28571 c -38.76001,-65.57143 -38.76001,-153 0,-262.28571 -6.70287,0 -35.84572,0 -87.42858,0 0,158.82857 29.14285,246.25714 87.42858,262.28571 z"
       id="path4850" /><path
       style="stroke-width:29.1428"
       d="m 437.14287,262.28571 c -38.76,-65.57143 -38.76,-153 0,-262.28571 -6.70286,0 -35.84571,0 -87.42857,0 0,158.82857 29.14285,246.25714 87.42857,262.28571 z"
       id="path4848" /><path
       style="stroke-width:29.1428"
       d="m 524.57144,262.28571 c -38.76,-65.57143 -38.76,-153 0,-262.28571 -6.70285,0 -35.84571,0 -87.42857,0 0,158.82857 29.14285,246.25714 87.42857,262.28571 z"
       id="path4796" /><path
       d="m 0.2381743,647.80298 c 8.78587,-0.85087 18.5573097,-1.56964 27.5129597,-9.61171 31.58653,-31.58653 32.10703,-32.10703 62.173769,-62.17378 27.078867,-27.07886 22.561517,-40.82877 21.932687,-57.98183 -1.04369,-28.45822 20.60085,-45.66977 46.51815,-69.94983 71.77318,-67.23893 116.26844,-106.51631 181.50448,-171.20038 8.31445,-8.2443 21.78603,-8.28001 30.06604,0 8.27973,8.27972 8.27994,21.78596 -7e-5,30.06596 l -100.27029,110.57453 7.0017,6.6654 c 49.24426,-47.04049 100.03086,-93.43553 148.15245,-141.55712 8.27994,-8.27993 21.78596,-8.27993 30.0659,0 8.27979,8.2798 8.28001,21.78603 7e-5,30.06597 -0.11745,0.11745 -0.29366,0.29366 -0.3875,0.46683 l -142.49658,146.63684 6.97031,6.9703 c 56.4851,-52.59333 116.15459,-104.47573 170.63349,-158.95463 8.28001,-8.28001 21.78603,-8.28001 30.06597,-7e-5 8.27979,8.27979 8.28001,21.78603 0,30.06604 0,0 -0.17614,0.17614 -0.17296,0.19134 l -161.3856,167.83823 9.11496,9.11496 c 49.13275,-48.06643 98.2655,-96.13286 147.39832,-144.19894 8.28878,-7.60119 21.26624,-7.19015 29.25258,0.7962 8.1038,8.1038 8.3387,21.37492 0.34896,29.69417 L 357.80135,602.60139 c -3.63015,3.53115 -3.09176,9.39235 0.49815,12.98226 2.02784,2.02785 8.11596,5.21089 17.23983,3.29767 l 83.17358,-15.24225 c 30.94511,-5.20219 51.66942,8.38515 64.17722,36.0932 -35.92675,11.00732 -119.463,43.08147 -178.04015,49.43483 -35.29587,7.76382 -103.02447,-16.83494 -130.72177,10.86236 -17.92855,17.92855 -37.09581,37.09581 -56.69278,56.69278 -11.65659,11.65658 -13.34304,36.32754 -13.15007,35.12793 z"
       style="fill:#000000;fill-opacity:1;fill-rule:evenodd;stroke:none;stroke-width:0.216;stroke-linecap:butt;stroke-linejoin:miter;stroke-miterlimit:10;stroke-dasharray:none;stroke-opacity:1"
       id="path3470" /></g></svg>
