<svg xmlns="http://www.w3.org/2000/svg" width="588.003" height="441.391"><style>@media (prefers-color-scheme:dark){*{fill:#80baff}}@media (prefers-color-scheme:light){*{fill:#003a7f}}</style><path d="M101.44 17.66 85.454 48.793l84.982 43.64-55.512 41.424c-22.519-9.715-46.616-1.724-63.389 20.294-24.551 32.229 60.207 183.083 113.444 257.305 13.06 18.209 34.05 28.882 56.455 29.201l51.19.73c24.187.346 66.747-46.179 83.401-84.144l26.192-41.424 127.535 119.117 78.252-.623-203.261-219.576-112.95 87.58-26.353-1.557c-35.751-43.639-82.419-112.538-82.419-112.538l63.564-83.887c8.047-10.62 10.087-24.006-1.766-30.094z"/><circle cx="60.985" cy="60.985" r="60.985"/></svg>
