<svg xmlns="http://www.w3.org/2000/svg" width="643.31" height="852.541"><style>@media (prefers-color-scheme:dark){*{fill:#80baff}}@media (prefers-color-scheme:light){*{fill:#003a7f}}</style><path d="M564.552 134.385c-60.294 0-69.428 84.096-69.428 84.096l-65.38 73.322-129.98 27.88 6.038 34.475 148.451-12.99 40.813-45.758 2.818 189.642-36.265 121.446-3.147 242.858 74.994.97 2.998-231.4 17.598-53.803 3.324 287.076 74.994-.867-3.806-328.736S643.31 452.242 643.31 414.7c0-44.013.794-280.316-78.758-280.316"/><circle cx="563.985" cy="60.985" r="60.985"/><path d="M153.516 134.725C60.097 134.725 39.99 266.446 0 340.69l31.92 144.85 34.828-3.473-9.042-131.363 20.173-35.912-3.121 100.25 7.27 74.455c1.248 12.786 7.577 23.688 7.464 33.438l-3.804 328.738 74.996.867 3.324-287.084 17.598 53.81 2.996 231.401 74.996-.97-3.149-242.858-19.954-112.127c-10.714-94.765 35.848-359.988-82.98-359.988"/><circle cx="156.453" cy="60.985" r="60.985"/></svg>
