<svg xmlns="http://www.w3.org/2000/svg" xmlns:xlink="http://www.w3.org/1999/xlink" width="816" height="1056"><style>@media (prefers-color-scheme:dark){*{fill:#80baff}}@media (prefers-color-scheme:light){*{fill:#003a7f}}</style><defs><symbol id="a"><path d="M116.571 706.286q-77.52 131.142 0 349.714H0q0-317.657 116.571-349.714"/></symbol></defs><path d="M.318 192.263c11.714 1.134 24.743 2.093 36.684 12.815l82.898 82.899c36.105 36.105 30.082 54.438 29.243 77.309-1.391 37.944 27.468 60.893 62.025 93.266 95.697 89.652 155.024 142.022 242.006 228.267 11.086 10.993 29.048 11.04 40.088 0s11.04-29.048 0-40.088L359.568 499.3l9.335-8.887c65.66 62.72 133.375 124.58 197.537 188.742 11.04 11.04 29.048 11.04 40.088 0s11.04-29.048 0-40.088c-.157-.156-.392-.391-.517-.622L416.016 442.928l9.294-9.294c75.313 70.125 154.872 139.301 227.511 211.94 11.04 11.04 29.048 11.04 40.088 0s11.04-29.048 0-40.088c0 0-.235-.235-.23-.255L477.497 381.447l12.153-12.154L686.18 561.56c11.053 10.134 28.356 9.586 39.004-1.062 10.805-10.805 11.119-28.5.466-39.592L477.068 252.532c-4.84-4.709-4.122-12.524.665-17.31 2.703-2.704 10.82-6.948 22.986-4.397l110.898 20.323c41.26 6.936 68.893-11.18 85.57-48.124-47.903-14.677-159.284-57.442-237.387-65.913-47.061-10.352-137.366 22.446-174.296-14.484l-75.59-75.59C194.372 31.495 192.124-1.4 192.38.2Z"/><use xlink:href="#a"/><use xlink:href="#a" transform="translate(116.571)"/><use xlink:href="#a" transform="translate(233.143)"/><use xlink:href="#a" transform="translate(349.714)"/><use xlink:href="#a" transform="translate(466.286)"/><use xlink:href="#a" transform="translate(582.857)"/><use xlink:href="#a" transform="translate(699.429)"/></svg>