<svg xmlns="http://www.w3.org/2000/svg" width="6.25" height="15"><style>@media (prefers-color-scheme:dark){*{fill:#80baff}}@media (prefers-color-scheme:light){*{fill:#003a7f}}</style><path d="M 5.93,10 H 0.31 C 0.13,10 0,10.14 0,10.31 v 4.07 C 0,14.72 0.27,15 0.62,15 h 5 c 0.35,0 0.63,-0.28 0.63,-0.62 V 10.31 C 6.25,10.14 6.11,10 5.93,10 Z M 0.31,7.81 h 5.62 c 0.18,0 0.32,0.14 0.32,0.32 v 0.62 c 0,0.17 -0.14,0.31 -0.32,0.31 H 0.31 C 0.13,9.06 0,8.92 0,8.75 V 8.13 C 0,7.95 0.13,7.81 0.31,7.81 Z m 0,-2.18 h 5.62 c 0.18,0 0.32,0.13 0.32,0.31 v 0.62 c 0,0.18 -0.14,0.32 -0.32,0.32 H 0.31 C 0.13,6.88 0,6.74 0,6.56 V 5.94 C 0,5.76 0.13,5.63 0.31,5.63 Z m 0,-0.94 H 5.93 C 6.11,4.69 6.25,4.55 6.25,4.38 6.25,3.34 5.41,2.5 4.37,2.5 V 1.25 C 4.72,1.25 5,0.97 5,0.63 5,0.28 4.72,0 4.37,0 H 1.87 C 1.52,0 1.25,0.28 1.25,0.63 c 0,0.34 0.27,0.62 0.62,0.62 V 2.5 C 0.83,2.5 0,3.34 0,4.38 0,4.46 0.03,4.54 0.09,4.6 0.15,4.65 0.22,4.69 0.31,4.69 Z"/></svg>