<svg xmlns="http://www.w3.org/2000/svg" height="41px" width="27px" viewBox="0 0 27 41">
<defs>
<radialGradient id="g" fr="0.21">
<stop offset="0" stop-opacity="0.28" />
<stop offset="1" stop-opacity="0.04" />
</radialGradient>
</defs>
<ellipse fill="url(#g)" cx="13.5" cy="34.8" rx="10.5" ry="5.25" />
<path id="background" d="M27,13.5 C27,19.074644 20.25,27 14.75,34.5 C14.016665,35.5 12.983335,35.5 12.25,34.5 C6.75,27 0,19.222562 0,13.5 C0,6.0441559 6.0441559,0 13.5,0 C20.955844,0 27,6.0441559 27,13.5 Z"></path>
<path fill="#000" opacity="0.25" d="M13.5,0 C6.0441559,0 0,6.0441559 0,13.5 C0,19.222562 6.75,27 12.25,34.5 C13,35.522727 14.016664,35.5 14.75,34.5 C20.25,27 27,19.074644 27,13.5 C27,6.0441559 20.955844,0 13.5,0 Z M13.5,1 C20.415404,1 26,6.584596 26,13.5 C26,15.898657 24.495584,19.181431 22.220703,22.738281 C19.945823,26.295132 16.705119,30.142167 13.943359,33.908203 C13.743445,34.180814 13.612715,34.322738 13.5,34.441406 C13.387285,34.322738 13.256555,34.180814 13.056641,33.908203 C10.284481,30.127985 7.4148684,26.314159 5.015625,22.773438 C2.6163816,19.232715 1,15.953538 1,13.5 C1,6.584596 6.584596,1 13.5,1 Z"></path>
<circle id="icon" fill="#fff" cx="13.5" cy="13.5" r="5.5"></circle>
</svg>
